<mxfile host="app.diagrams.net" modified="2023-06-06T07:16:11.421Z" agent="Mozilla/5.0 (Windows NT 10.0; WOW64) AppleWebKit/537.36 (KHTML, like Gecko) Chrome/87.0.4280.66 Safari/537.36 SE 2.X MetaSr 1.0" etag="5B0RpsZHG3yO7-3TUlse" version="21.3.7" type="github">
  <diagram name="Page-1" id="55a83fd1-7818-8e21-69c5-c3457e3827bb">
    <mxGraphModel dx="2135" dy="1355" grid="1" gridSize="10" guides="1" tooltips="1" connect="1" arrows="1" fold="1" page="1" pageScale="1" pageWidth="1100" pageHeight="850" background="none" math="0" shadow="0">
      <root>
        <mxCell id="0" />
        <mxCell id="1" parent="0" />
        <mxCell id="XLqytdU_7IATJD4OvnhC-30" value="基础设施架构" style="rounded=0;whiteSpace=wrap;html=1;fontSize=40;verticalAlign=top;fontColor=#EA6B66;fontStyle=1" vertex="1" parent="1">
          <mxGeometry x="-70" y="-190" width="1250" height="1290" as="geometry" />
        </mxCell>
        <mxCell id="XLqytdU_7IATJD4OvnhC-29" style="edgeStyle=orthogonalEdgeStyle;rounded=0;orthogonalLoop=1;jettySize=auto;html=1;shape=link;entryX=0.135;entryY=0.85;entryDx=0;entryDy=0;entryPerimeter=0;" edge="1" parent="1" source="XLqytdU_7IATJD4OvnhC-28" target="XLqytdU_7IATJD4OvnhC-6">
          <mxGeometry relative="1" as="geometry">
            <mxPoint x="440" y="740" as="targetPoint" />
          </mxGeometry>
        </mxCell>
        <mxCell id="XLqytdU_7IATJD4OvnhC-28" value="PC端内网用户设备" style="whiteSpace=wrap;html=1;aspect=fixed;strokeColor=#EA6B66;verticalAlign=bottom;fontStyle=1;fontColor=#EA6B66;" vertex="1" parent="1">
          <mxGeometry x="140" y="850" width="190" height="190" as="geometry" />
        </mxCell>
        <mxCell id="XLqytdU_7IATJD4OvnhC-23" value="DMZ区" style="whiteSpace=wrap;html=1;aspect=fixed;dashed=1;strokeColor=#EA6B66;verticalAlign=bottom;fontStyle=1;fontColor=#EA6B66;" vertex="1" parent="1">
          <mxGeometry x="440" y="390" width="200" height="200" as="geometry" />
        </mxCell>
        <mxCell id="XLqytdU_7IATJD4OvnhC-2" value="" style="rounded=0;whiteSpace=wrap;html=1;" vertex="1" parent="1">
          <mxGeometry x="250" y="-100" width="550" height="160" as="geometry" />
        </mxCell>
        <mxCell id="69ecfefc5c41e42c-18" style="edgeStyle=none;rounded=0;html=1;labelBackgroundColor=none;endArrow=none;strokeWidth=2;fontFamily=Verdana;fontSize=22" parent="1" target="69ecfefc5c41e42c-3" edge="1">
          <mxGeometry relative="1" as="geometry">
            <mxPoint x="510" y="465" as="sourcePoint" />
          </mxGeometry>
        </mxCell>
        <mxCell id="69ecfefc5c41e42c-2" value="Internet" style="image;html=1;labelBackgroundColor=#ffffff;image=img/lib/clip_art/networking/Cloud_128x128.png;rounded=1;shadow=0;comic=0;strokeWidth=2;fontSize=22;labelPosition=center;verticalLabelPosition=top;align=center;verticalAlign=bottom;" parent="1" vertex="1">
          <mxGeometry x="470" y="140" width="80" height="80" as="geometry" />
        </mxCell>
        <mxCell id="69ecfefc5c41e42c-19" style="edgeStyle=none;rounded=0;html=1;labelBackgroundColor=none;endArrow=none;strokeWidth=2;fontFamily=Verdana;fontSize=22" parent="1" source="69ecfefc5c41e42c-3" target="69ecfefc5c41e42c-2" edge="1">
          <mxGeometry relative="1" as="geometry" />
        </mxCell>
        <mxCell id="69ecfefc5c41e42c-3" value="Firewall" style="image;html=1;labelBackgroundColor=#ffffff;image=img/lib/clip_art/networking/Firewall_128x128.png;rounded=1;shadow=0;comic=0;strokeWidth=2;fontSize=22;labelPosition=right;verticalLabelPosition=middle;align=left;verticalAlign=middle;" parent="1" vertex="1">
          <mxGeometry x="470" y="290" width="80" height="80" as="geometry" />
        </mxCell>
        <mxCell id="69ecfefc5c41e42c-4" value="Tablet" style="image;html=1;labelBackgroundColor=#ffffff;image=img/lib/clip_art/computers/iPad_128x128.png;rounded=1;shadow=0;comic=0;strokeWidth=2;fontSize=22" parent="1" vertex="1">
          <mxGeometry x="350" y="-80" width="80" height="80" as="geometry" />
        </mxCell>
        <mxCell id="69ecfefc5c41e42c-5" value="PC" style="image;html=1;labelBackgroundColor=#ffffff;image=img/lib/clip_art/computers/Monitor_Tower_128x128.png;rounded=1;shadow=0;comic=0;strokeWidth=2;fontSize=22" parent="1" vertex="1">
          <mxGeometry x="230" y="850" width="80" height="80" as="geometry" />
        </mxCell>
        <mxCell id="69ecfefc5c41e42c-8" value="Mobile" style="image;html=1;labelBackgroundColor=#ffffff;image=img/lib/clip_art/telecommunication/iPhone_128x128.png;rounded=1;shadow=0;comic=0;strokeWidth=2;fontSize=22" parent="1" vertex="1">
          <mxGeometry x="610" y="-80" width="80" height="80" as="geometry" />
        </mxCell>
        <mxCell id="69ecfefc5c41e42c-10" value="Laptop" style="image;html=1;labelBackgroundColor=#ffffff;image=img/lib/clip_art/computers/Netbook_128x128.png;rounded=1;shadow=0;comic=0;strokeWidth=2;fontSize=22" parent="1" vertex="1">
          <mxGeometry x="150" y="905" width="80" height="80" as="geometry" />
        </mxCell>
        <mxCell id="XLqytdU_7IATJD4OvnhC-1" value="" style="fontColor=#0066CC;verticalAlign=top;verticalLabelPosition=bottom;labelPosition=center;align=center;html=1;outlineConnect=0;fillColor=#CCCCCC;strokeColor=#6881B3;gradientColor=none;gradientDirection=north;strokeWidth=2;shape=mxgraph.networks.comm_link;" vertex="1" parent="1">
          <mxGeometry x="500" y="10" width="30" height="100" as="geometry" />
        </mxCell>
        <mxCell id="XLqytdU_7IATJD4OvnhC-3" value="" style="endArrow=none;dashed=1;html=1;rounded=0;" edge="1" parent="1">
          <mxGeometry width="50" height="50" relative="1" as="geometry">
            <mxPoint x="-10" y="260" as="sourcePoint" />
            <mxPoint x="1100" y="260" as="targetPoint" />
          </mxGeometry>
        </mxCell>
        <mxCell id="XLqytdU_7IATJD4OvnhC-4" value="互联网" style="text;html=1;strokeColor=none;fillColor=none;align=center;verticalAlign=middle;whiteSpace=wrap;rounded=0;fontSize=20;fontColor=#EA6B66;fontStyle=1" vertex="1" parent="1">
          <mxGeometry x="130" y="210" width="90" height="30" as="geometry" />
        </mxCell>
        <mxCell id="XLqytdU_7IATJD4OvnhC-5" value="公司内网" style="text;html=1;strokeColor=none;fillColor=none;align=center;verticalAlign=middle;whiteSpace=wrap;rounded=0;fontSize=20;fontColor=#EA6B66;fontStyle=1" vertex="1" parent="1">
          <mxGeometry x="130" y="280" width="90" height="30" as="geometry" />
        </mxCell>
        <mxCell id="XLqytdU_7IATJD4OvnhC-15" value="" style="group" vertex="1" connectable="0" parent="1">
          <mxGeometry x="400" y="630" width="260" height="140" as="geometry" />
        </mxCell>
        <mxCell id="XLqytdU_7IATJD4OvnhC-6" value="&lt;b&gt;&lt;font color=&quot;#ea6b66&quot;&gt;公司以太网环境&lt;/font&gt;&lt;/b&gt;" style="html=1;fillColor=#CCCCCC;strokeColor=#6881B3;gradientColor=none;gradientDirection=north;strokeWidth=2;shape=mxgraph.networks.bus;gradientColor=none;gradientDirection=north;fontColor=#ffffff;perimeter=backbonePerimeter;backboneSize=20;" vertex="1" parent="XLqytdU_7IATJD4OvnhC-15">
          <mxGeometry y="60" width="260" height="20" as="geometry" />
        </mxCell>
        <mxCell id="XLqytdU_7IATJD4OvnhC-12" value="" style="strokeColor=#6881B3;edgeStyle=none;rounded=0;endArrow=none;html=1;strokeWidth=2;" edge="1" target="XLqytdU_7IATJD4OvnhC-6" parent="XLqytdU_7IATJD4OvnhC-15">
          <mxGeometry relative="1" as="geometry">
            <mxPoint x="100" y="140" as="sourcePoint" />
          </mxGeometry>
        </mxCell>
        <mxCell id="XLqytdU_7IATJD4OvnhC-14" value="" style="strokeColor=#6881B3;edgeStyle=none;rounded=0;endArrow=none;html=1;strokeWidth=2;" edge="1" target="XLqytdU_7IATJD4OvnhC-6" parent="XLqytdU_7IATJD4OvnhC-15">
          <mxGeometry relative="1" as="geometry">
            <mxPoint x="220" y="140" as="sourcePoint" />
          </mxGeometry>
        </mxCell>
        <mxCell id="XLqytdU_7IATJD4OvnhC-17" value="" style="edgeStyle=orthogonalEdgeStyle;rounded=0;orthogonalLoop=1;jettySize=auto;html=1;shape=link;entryX=0.019;entryY=0.5;entryDx=0;entryDy=0;entryPerimeter=0;" edge="1" parent="1" source="XLqytdU_7IATJD4OvnhC-16" target="XLqytdU_7IATJD4OvnhC-6">
          <mxGeometry relative="1" as="geometry" />
        </mxCell>
        <mxCell id="XLqytdU_7IATJD4OvnhC-16" value="SRMS数据库（ORACLE资源池）" style="fontColor=#0066CC;verticalAlign=top;verticalLabelPosition=bottom;labelPosition=center;align=center;html=1;outlineConnect=0;fillColor=#CCCCCC;strokeColor=#6881B3;gradientColor=none;gradientDirection=north;strokeWidth=2;shape=mxgraph.networks.storage;" vertex="1" parent="1">
          <mxGeometry x="80" y="610" width="100" height="100" as="geometry" />
        </mxCell>
        <mxCell id="XLqytdU_7IATJD4OvnhC-22" style="edgeStyle=orthogonalEdgeStyle;rounded=0;orthogonalLoop=1;jettySize=auto;html=1;shape=link;entryX=0.385;entryY=0;entryDx=0;entryDy=0;entryPerimeter=0;" edge="1" parent="1" source="XLqytdU_7IATJD4OvnhC-18" target="XLqytdU_7IATJD4OvnhC-6">
          <mxGeometry relative="1" as="geometry">
            <mxPoint x="500" y="680" as="targetPoint" />
          </mxGeometry>
        </mxCell>
        <mxCell id="XLqytdU_7IATJD4OvnhC-18" value="Nginx反向代理服务器" style="fontColor=#0066CC;verticalAlign=top;verticalLabelPosition=bottom;labelPosition=center;align=center;html=1;outlineConnect=0;fillColor=#CCCCCC;strokeColor=#6881B3;gradientColor=none;gradientDirection=north;strokeWidth=2;shape=mxgraph.networks.proxy_server;" vertex="1" parent="1">
          <mxGeometry x="462.5" y="400" width="105" height="105" as="geometry" />
        </mxCell>
        <mxCell id="XLqytdU_7IATJD4OvnhC-21" value="" style="edgeStyle=orthogonalEdgeStyle;rounded=0;orthogonalLoop=1;jettySize=auto;html=1;shape=link;entryX=0.958;entryY=0.5;entryDx=0;entryDy=0;entryPerimeter=0;" edge="1" parent="1" source="XLqytdU_7IATJD4OvnhC-19" target="XLqytdU_7IATJD4OvnhC-6">
          <mxGeometry relative="1" as="geometry">
            <mxPoint x="722.5" y="697.5" as="targetPoint" />
          </mxGeometry>
        </mxCell>
        <mxCell id="XLqytdU_7IATJD4OvnhC-19" value="移动端Web接口服务器" style="fontColor=#0066CC;verticalAlign=top;verticalLabelPosition=bottom;labelPosition=center;align=center;html=1;outlineConnect=0;fillColor=#CCCCCC;strokeColor=#6881B3;gradientColor=none;gradientDirection=north;strokeWidth=2;shape=mxgraph.networks.web_server;" vertex="1" parent="1">
          <mxGeometry x="785" y="585" width="105" height="105" as="geometry" />
        </mxCell>
        <mxCell id="XLqytdU_7IATJD4OvnhC-25" style="edgeStyle=orthogonalEdgeStyle;rounded=0;orthogonalLoop=1;jettySize=auto;html=1;entryX=0.6;entryY=0.85;entryDx=0;entryDy=0;entryPerimeter=0;shape=link;" edge="1" parent="1" source="XLqytdU_7IATJD4OvnhC-24" target="XLqytdU_7IATJD4OvnhC-6">
          <mxGeometry relative="1" as="geometry" />
        </mxCell>
        <mxCell id="XLqytdU_7IATJD4OvnhC-24" value="PC端Web服务器" style="fontColor=#0066CC;verticalAlign=top;verticalLabelPosition=bottom;labelPosition=center;align=center;html=1;outlineConnect=0;fillColor=#CCCCCC;strokeColor=#6881B3;gradientColor=none;gradientDirection=north;strokeWidth=2;shape=mxgraph.networks.web_server;" vertex="1" parent="1">
          <mxGeometry x="785" y="800" width="105" height="105" as="geometry" />
        </mxCell>
        <mxCell id="XLqytdU_7IATJD4OvnhC-26" value="移动端Web接口服务器" style="fontColor=#0066CC;verticalAlign=top;verticalLabelPosition=bottom;labelPosition=center;align=center;html=1;outlineConnect=0;fillColor=#CCCCCC;strokeColor=#6881B3;gradientColor=none;gradientDirection=north;strokeWidth=2;shape=mxgraph.networks.web_server;" vertex="1" parent="1">
          <mxGeometry x="890" y="510" width="105" height="105" as="geometry" />
        </mxCell>
        <mxCell id="XLqytdU_7IATJD4OvnhC-27" value="PC端Web服务器" style="fontColor=#0066CC;verticalAlign=top;verticalLabelPosition=bottom;labelPosition=center;align=center;html=1;outlineConnect=0;fillColor=#CCCCCC;strokeColor=#6881B3;gradientColor=none;gradientDirection=north;strokeWidth=2;shape=mxgraph.networks.web_server;" vertex="1" parent="1">
          <mxGeometry x="890" y="720" width="105" height="105" as="geometry" />
        </mxCell>
      </root>
    </mxGraphModel>
  </diagram>
</mxfile>
